<svg xmlns="http://www.w3.org/2000/svg" xmlns:xlink="http://www.w3.org/1999/xlink" width="30" height="29.99993896484375" viewBox="0 0 30 29.99993896484375" fill="none">
<path d="M15 29.9999C23.2843 29.9999 30 23.2842 30 15C30 6.71572 23.2843 0 15 0C6.71573 0 0 6.71572 0 15C0 23.2842 6.71573 29.9999 15 29.9999Z" fill-rule="evenodd"  fill="#7361CF" >
</path>
<path d="M6.13574 11.5909L6.13574 18.4091C6.13574 18.4988 6.14451 18.5876 6.16204 18.6756C6.17958 18.7636 6.20554 18.849 6.23994 18.9319C6.27433 19.0147 6.31648 19.0934 6.36641 19.1679C6.41633 19.2425 6.47306 19.3114 6.53659 19.3747C6.59987 19.4379 6.6687 19.4942 6.74306 19.5438C6.81742 19.5933 6.8959 19.6352 6.97849 19.6693C7.06107 19.7034 7.14619 19.7292 7.23385 19.7466C7.3215 19.764 7.41001 19.7727 7.49938 19.7727L22.4994 19.7727C23.2525 19.7727 23.863 19.1622 23.863 18.4091L23.863 11.5909C23.863 10.5772 22.7963 9.91789 21.8895 10.3712L18.8408 11.8956L16.109 8.07104C15.5652 7.30965 14.4336 7.30965 13.8898 8.07104L11.1579 11.8956L8.10921 10.3712C7.20253 9.91789 6.13574 10.5772 6.13574 11.5909Z" fill-rule="evenodd"  fill="#FFFFFF" >
</path>
</svg>
