<?xml version="1.0" standalone="no"?><!DOCTYPE svg PUBLIC "-//W3C//DTD SVG 1.1//EN" "http://www.w3.org/Graphics/SVG/1.1/DTD/svg11.dtd"><svg t="1756992935846" class="icon" viewBox="0 0 1024 1024" version="1.1" xmlns="http://www.w3.org/2000/svg" p-id="1484" xmlns:xlink="http://www.w3.org/1999/xlink" width="200" height="200"><path d="M827.036735 849.502041H196.963265c-25.6 0-49.110204-11.493878-64.783673-30.82449-15.15102-18.808163-20.37551-42.840816-15.151021-65.828571l75.755102-327.575511c8.359184-36.571429 41.273469-62.171429 79.934694-62.171428h479.085715c38.661224 0 71.57551 25.6 79.934694 62.171428l75.755102 327.575511c5.22449 22.987755 0 47.020408-15.151021 65.828571-16.195918 19.330612-39.706122 30.82449-65.306122 30.82449z" fill="#1296db" p-id="1485"></path><path d="M636.342857 561.632653c-10.971429 0-19.853061-8.881633-19.853061-19.853061V318.171429c0-57.469388-46.497959-104.489796-104.489796-104.489796s-104.489796 47.020408-104.489796 104.489796v223.608163c0 10.971429-8.881633 19.853061-19.853061 19.853061s-19.853061-8.881633-19.853061-19.853061V318.171429c0-79.412245 64.783673-144.195918 144.195918-144.195919s144.195918 64.783673 144.195918 144.195919v223.608163c0 10.971429-9.404082 19.853061-19.853061 19.853061z" fill="#1296db" p-id="1486"></path></svg>