<svg xmlns="http://www.w3.org/2000/svg" xmlns:xlink="http://www.w3.org/1999/xlink" width="20" height="20" viewBox="0 0 20 20" fill="none">
<circle cx="10" cy="10" r="10"   fill="#BFBFC3" >
</circle>
<g >
<path     fill="#FFFFFF"  d="M11.4458 13.423Q11.4686 13.9716 11.5429 14.2459Q11.6172 14.5202 11.7658 14.5202Q11.9029 14.5202 12.0001 14.2459Q12.0972 13.9716 12.1772 13.2287L13.1143 4.48583L14.0286 4.48583L13.1029 13.3202Q12.9886 14.4288 12.6972 14.9945Q12.4058 15.5602 11.7658 15.5602Q11.2858 15.5602 10.9829 15.0516Q10.68 14.543 10.6343 13.5373L11.4458 13.423ZM7.28573 9.023Q7.14859 10.3602 6.9543 11.4687Q6.76001 12.5773 6.5143 13.5716Q6.26858 14.5659 5.93715 15.5488L5.04571 15.2631Q5.36572 14.3373 5.61143 13.3888Q5.85715 12.4402 6.04572 11.3659Q6.23429 10.2916 6.36001 9.01157L6.7943 4.85154L10.2229 4.85154Q10.6229 4.85154 10.8686 5.05726Q11.1143 5.26297 11.0572 5.69726L10.8629 7.64014L7.4343 7.64014L7.28573 9.023ZM11.6286 5.53726L12.4972 5.53726L11.7543 12.6573L10.8743 12.6573L11.6286 5.53726ZM7.52573 6.73727L9.99432 6.73727L10.0972 5.75441L7.64002 5.75441L7.52573 6.73727ZM9.33146 13.5145Q9.44575 13.4916 9.48003 13.3202Q9.51432 13.1487 9.56003 12.6345L9.85718 9.74301L9.48003 9.74301L8.86289 15.5488L8.04002 15.5488L8.64574 9.74301L8.23431 9.74301L7.75431 14.3716L6.97716 14.3716L7.54859 8.85157L8.69146 8.85157L8.78289 7.96014L9.70861 7.96014L9.60575 8.85157L9.96004 8.85157Q10.3372 8.85157 10.5315 9.06872Q10.7258 9.28586 10.68 9.66301L10.3029 13.103Q10.2343 13.7316 10.0686 14.023Q9.90289 14.3145 9.45718 14.3488L9.21717 14.3716L9.21717 13.5373L9.33146 13.5145Z">
</path>
</g>
</svg>
